<?xml version="1.0" encoding="utf-8"?>
<!-- Generator: Adobe Illustrator 23.0.2, SVG Export Plug-In . SVG Version: 6.00 Build 0)  -->
<svg version="1.1" id="图层_1" xmlns="http://www.w3.org/2000/svg" xmlns:xlink="http://www.w3.org/1999/xlink" x="0px" y="0px"
	 viewBox="0 0 283.5 92.7" style="enable-background:new 0 0 283.5 92.7;" xml:space="preserve">
<style type="text/css">
	.st0{enable-background:new    ;}
	.st1{fill:#D54023;}
	.st2{fill:#969595;}
	.st3{fill:url(#Combined-Shape-Copy-6_1_);}
</style>
<g>
	<g class="st0">
		<path class="st1" d="M122.2,51c0.8,1.2,1.4,2.2,2.1,3.4c-0.1-1.3-0.2-2.7-0.2-4.3v-6.6c0-1.9-0.1-3.1-0.2-4.4h6.2
			c-0.2,1.3-0.2,2.5-0.2,4.4v15.4c0,1.8,0.1,3.1,0.2,4.3h-6.3c-0.5-1.1-1.2-2.2-2.2-3.7l-5.4-8.1c-0.8-1.2-1.3-2-2.1-3.6
			c0.1,1.3,0.2,2.9,0.2,4.3v6.5c0,2,0.1,3.3,0.2,4.5h-6.2c0.2-1.1,0.2-2.4,0.2-4.5V43.5c0-1.7-0.1-3-0.2-4.3h6.3
			c0.3,0.8,0.9,1.9,2.1,3.6L122.2,51z"/>
		<path class="st1" d="M136.8,56.1c0.3,2.3,1.7,3.6,3.9,3.6c1.2,0,2.2-0.4,2.9-1.1c0.4-0.4,0.6-0.7,0.9-1.5l5,1.4
			c-0.7,1.5-1.1,2.2-1.9,3c-1.7,1.6-4,2.5-6.8,2.5c-2.8,0-5.1-0.8-6.7-2.5c-1.7-1.7-2.6-4.2-2.6-7.1c0-5.7,3.7-9.5,9.2-9.5
			c4.5,0,7.7,2.5,8.7,6.8c0.2,0.9,0.3,2.1,0.4,3.8c0,0.1,0,0.3,0,0.6H136.8z M144.3,52.1c-0.4-1.9-1.7-2.8-3.6-2.8
			c-2.1,0-3.3,0.9-3.8,2.8H144.3z"/>
		<path class="st1" d="M169.1,45.6c-0.2,1.4-0.2,2.6-0.2,4.3v8.9c0,2,0.1,3.2,0.2,4.3h-5.8V62c0-0.1,0-0.6,0-0.8
			c-1.9,1.8-3.6,2.5-6,2.5c-1.9,0-3.5-0.6-4.6-1.6c-1.2-1.2-1.7-2.6-1.7-4.9v-7.3c0-1.7-0.1-3.1-0.2-4.3h6c-0.2,1.4-0.2,2.6-0.2,4.3
			v5.9c0,1.2,0.1,1.7,0.5,2.2c0.4,0.5,1,0.8,1.9,0.8c1.6,0,3.2-1.1,4.3-3v-5.9c0-1.6-0.1-2.8-0.2-4.3H169.1z"/>
		<path class="st1" d="M184,50.8c-1.3-0.4-2.1-0.6-3-0.6c-1.5,0-2.6,0.5-3.4,1.6c-0.6,0.7-0.8,1.3-0.9,2.6v4.5c0,1.9,0.1,3,0.2,4.3
			h-6c0.2-1.4,0.2-2.5,0.2-4.4V50c0-2.1-0.1-3.1-0.2-4.4h5.8v2.3c1.4-1.9,3.2-2.6,5.8-2.6c0.9,0,1.5,0.1,2.9,0.3L184,50.8z"/>
		<path class="st1" d="M185.1,54.4c0-5.8,3.7-9.5,9.6-9.5c5.9,0,9.6,3.7,9.6,9.4c0,5.8-3.8,9.6-9.6,9.6
			C188.9,63.9,185.1,60.2,185.1,54.4z M190.7,54.4c0,3.2,1.5,5.2,4,5.2c2.5,0,4-1.9,4-5.1c0-3.2-1.5-5.2-3.9-5.2
			C192.2,49.3,190.7,51.2,190.7,54.4z"/>
	</g>
	<g class="st0">
		<path class="st2" d="M209.9,63.3c-2.2,0-3,0-4.3,0.1c0.2-1.2,0.2-2.2,0.2-4.3V43.2c0-1.5-0.1-2.8-0.2-4.2c1.5,0.1,1.9,0.1,4.3,0.1
			h7.6c4.7,0,7.4,2.3,7.4,6.1c0,1.8-0.6,3.2-1.7,4.1c-0.6,0.6-1.2,0.8-2.3,1.3c1.4,0.3,2.2,0.7,3,1.4c1.2,1.1,1.9,2.7,1.9,4.6
			c0,4.2-3,6.6-8,6.6H209.9z M216.6,48.5c1.5,0,2.5-0.9,2.5-2.3c0-1.4-0.9-2.2-2.5-2.2h-5v4.5H216.6z M211.5,58.5h5.3
			c1.8,0,2.9-1,2.9-2.7c0-1.7-1.1-2.7-3-2.7h-5.3V58.5z"/>
		<path class="st2" d="M233.2,39.2c-0.2,1.2-0.2,2.4-0.2,4.4v15.4c0,1.7,0.1,2.8,0.2,4.4h-6.1c0.2-1.3,0.2-2.3,0.2-4.4V43.5
			c0-2.1-0.1-3.3-0.2-4.4H233.2z"/>
		<path class="st2" d="M239.6,56.1c0.3,2.3,1.7,3.6,3.9,3.6c1.2,0,2.2-0.4,2.9-1.1c0.4-0.4,0.6-0.7,0.9-1.5l5,1.4
			c-0.7,1.5-1.1,2.2-1.9,3c-1.7,1.6-4,2.5-6.8,2.5c-2.8,0-5.1-0.8-6.7-2.5c-1.7-1.7-2.6-4.2-2.6-7.1c0-5.7,3.7-9.5,9.2-9.5
			c4.5,0,7.7,2.5,8.7,6.8c0.2,0.9,0.3,2.1,0.4,3.8c0,0.1,0,0.3,0,0.6H239.6z M247.2,52.1c-0.4-1.9-1.7-2.8-3.6-2.8
			c-2.1,0-3.3,0.9-3.8,2.8H247.2z"/>
		<path class="st2" d="M253.8,63.3c0.2-1.3,0.2-2.5,0.2-4.4V50c0-2.2-0.1-3.2-0.2-4.4h5.7v1.2c0,0.1,0,0.1,0,0.4c0,0,0,0.1,0,0.1
			c0,0,0,0.1,0,0.1c1.5-1.6,3.2-2.4,5.5-2.4c1.5,0,2.8,0.3,3.7,1c0.5,0.4,0.8,0.7,1.2,1.4c1.8-1.8,3.6-2.5,6.1-2.5
			c4.1,0,6.3,2.3,6.3,6.6v7.2c0,1.8,0.1,3,0.2,4.3h-6c0.2-1.4,0.2-2.4,0.2-4.4v-6c0-2.2-0.6-3-2.3-3c-1.5,0-2.8,1.2-3.5,3.1v5.9
			c0,1.7,0.1,3,0.2,4.3h-6c0.2-1.3,0.2-2.5,0.2-4.4v-6c0-1.2-0.1-1.8-0.5-2.3c-0.3-0.5-0.9-0.7-1.6-0.7c-1.6,0-2.9,1.1-3.7,3.1v5.9
			c0,1.8,0.1,3,0.2,4.4H253.8z"/>
	</g>
	
		<linearGradient id="Combined-Shape-Copy-6_1_" gradientUnits="userSpaceOnUse" x1="-641.7562" y1="220.0414" x2="-642.4861" y2="220.6949" gradientTransform="matrix(88 0 0 -87 56558.1953 19224.8164)">
		<stop  offset="0" style="stop-color:#BF1A20"/>
		<stop  offset="1" style="stop-color:#ED7A41"/>
	</linearGradient>
	<path id="Combined-Shape-Copy-6_3_" class="st3" d="M47.5,11.1c0.3-5.5,4.9-9.8,10.5-9.8c5.8,0,10.5,4.7,10.5,10.4
		c0,0.1,0,0.2,0,0.3c-0.6,2-1.8,3.9-3.3,5.4c0.7-0.3,1.3-0.6,1.9-1c1.8-1.2,3.1-2.8,4-4.7c5.8,0,10.5,4.7,10.5,10.6
		c-0.5,4.6-3.5,8.6-7.8,10.5c0.7,0,1.5-0.1,2.2-0.3c2.3-0.5,4.2-1.7,5.7-3.3c5.3,1.5,9.4,6.1,10.2,11.6c0.1,0.4,0.2,2.4,0.1,3.8
		c-0.3,2.4-1.1,4.5-2.4,6.4c-2.9,4-7.9,6.1-12.8,5.3c0.6,0.4,1.3,0.7,2,1c2.8,1,5.8,0.8,8.4-0.3c1.5,2.4,2.3,5.2,2.3,8.2
		c0,8.6-7.1,15.7-15.8,15.7c-0.3,0-0.6,0-0.8,0c-3.1-0.6-5.9-2.2-7.9-4.7c0.2,0.7,0.5,1.4,0.8,2c1.3,2.4,3.4,4.2,5.8,5.1
		c-1.8,4.7-6.3,8-11.7,8c-6.6,0-11.9-5-12.4-11.4l0-4.9l5.3-4.9l1.4,1.4l4.6-4.6l-4.6-4.6l-4.6,4.6l1.2,1.2l-3.3,3.1l0-20.6l6.3-6
		L68.2,58L67,59.2l4.6,4.6l4.6-4.6l-4.6-4.6l-1.4,1.4L53.9,40.7l-6.4,6l0-20.3l11,10.2l4.7-4.4l1.7,1.7l4.6-4.6l-4.6-4.6l-4.6,4.6
		l1,1l-2.7,2.5l-11-10.4 M42.4,29.8l3.2-3l0,21.7l-5.4,4.9L26.8,41.1l1.2-1.2l-4.6-4.6L18.7,40l4.6,4.6l1.5-1.5l15.4,14.3l5.4-5
		l0,19.3l0-0.5l-13-12.3l-5.1,4.8l-1.4-1.4l-4.6,4.6l4.6,4.6l4.6-4.6l-1.2-1.2l3.1-2.9l13,12.2l0,4.9c-0.5,6.4-5.9,11.4-12.4,11.4
		c-5.3,0-9.9-3.3-11.7-8c2.4-0.9,4.5-2.7,5.8-5.1c0.4-0.7,0.6-1.3,0.8-2c-2,2.5-4.9,4.2-7.9,4.7c-0.3,0-0.6,0-0.8,0
		c-8.7,0-15.8-7-15.8-15.7c0-3,0.9-5.8,2.3-8.2c2.6,1.1,5.5,1.3,8.4,0.3c0.7-0.3,1.4-0.6,2-1c-5,0.8-10-1.3-12.8-5.3
		c-1.3-1.9-2.1-4.1-2.4-6.4c-0.1-1.4,0-3.4,0.1-3.8C2,35.3,6.1,30.8,11.4,29.3c1.5,1.6,3.4,2.8,5.7,3.3c0.7,0.2,1.5,0.3,2.2,0.3
		C15,31,12,27,11.5,22.4c0-5.9,4.7-10.6,10.5-10.6c0.9,1.8,2.2,3.5,4,4.7c0.6,0.4,1.3,0.8,1.9,1c-1.6-1.5-2.7-3.4-3.3-5.4
		c0-0.1,0-0.2,0-0.3c0-5.8,4.7-10.4,10.5-10.4c5.6,0,10.1,4.3,10.5,9.8l0,11.8l-5.2,4.9l-1.4-1.4L34.5,31l4.6,4.6l4.6-4.6L42.4,29.8
		z"/>
</g>
</svg>
